<svg width="17" height="16" viewBox="0 0 17 16" fill="none" xmlns="http://www.w3.org/2000/svg">
<g clip-path="url(#clip0_2_804)">
<path d="M8.50001 14.6667C7.07052 14.6667 6.04183 14.666 5.23981 14.5882C4.44698 14.5114 3.93981 14.3637 3.53506 14.1093C3.07246 13.8187 2.68129 13.4276 2.39062 12.965C2.13637 12.5602 1.9886 12.0531 1.91183 11.2602C1.83405 10.4582 1.83334 9.42954 1.83334 8.00004C1.83334 6.57055 1.83405 5.54186 1.91183 4.73984C1.9886 3.94701 2.13637 3.43984 2.39062 3.03509C2.68128 2.57248 3.07245 2.18131 3.53506 1.89065C3.93981 1.6364 4.44698 1.48863 5.23981 1.41186C6.04173 1.33408 7.07041 1.33337 8.50001 1.33337C9.92951 1.33337 10.9582 1.33408 11.7602 1.41186C12.553 1.48863 13.0602 1.6364 13.465 1.89065C13.9275 2.18132 14.3187 2.57249 14.6093 3.03509C14.8636 3.43984 15.0113 3.94701 15.0882 4.73984C15.166 5.54186 15.1667 6.57055 15.1667 8.00004C15.1667 9.42954 15.166 10.4582 15.0882 11.2602C15.0113 12.0531 14.8636 12.5602 14.6093 12.965C14.3187 13.4276 13.9275 13.8187 13.465 14.1093C13.0602 14.3637 12.553 14.5114 11.7602 14.5882C10.9582 14.666 9.92951 14.6667 8.50001 14.6667Z" fill="white" stroke="white" stroke-width="2"/>
<path d="M8.50001 11.3333C9.97277 11.3333 11.1667 10.1394 11.1667 8.66667C11.1667 7.19391 9.97277 6 8.50001 6C7.02725 6 5.83334 7.19391 5.83334 8.66667C5.83334 10.1394 7.02725 11.3333 8.50001 11.3333Z" fill="white" stroke="black" stroke-width="2"/>
<path d="M11.75 5.5C12.1642 5.5 12.5 5.16421 12.5 4.75C12.5 4.33579 12.1642 4 11.75 4C11.3358 4 11 4.33579 11 4.75C11 5.16421 11.3358 5.5 11.75 5.5Z" fill="black"/>
</g>
<defs>
<clipPath id="clip0_2_804">
<rect width="16" height="16" fill="white" transform="translate(0.5)"/>
</clipPath>
</defs>
</svg>
