<svg width="17" height="16" viewBox="0 0 17 16" fill="none" xmlns="http://www.w3.org/2000/svg">
<path d="M9.68089 3.81794C9.68089 3.98169 9.68089 4.51541 9.68089 5.27366H12.2879L12.0052 7.59763H9.68089C9.68089 11.1816 9.68089 15.9843 9.68089 15.9843H6.59571C6.59571 15.9843 6.59571 11.2452 6.59571 7.59763H4.98811V5.27366H6.59571C6.59571 4.35204 6.59571 3.69669 6.59571 3.51422C6.59571 2.64485 6.53021 2.23235 6.89961 1.55866C7.26921 0.885005 8.31171 -0.00543266 10.1148 0.0160048C11.9183 0.0382236 12.6786 0.211724 12.6786 0.211724L12.2879 2.6885C12.2879 2.6885 11.1362 2.38441 10.571 2.49279C10.0064 2.60119 9.68089 2.94894 9.68089 3.81794Z" fill="white"/>
</svg>
