<svg width="17" height="16" viewBox="0 0 17 16" fill="none" xmlns="http://www.w3.org/2000/svg">
<path d="M12.0503 3.358C11.3909 2.59144 11.0455 1.60104 11.073 0.592723L8.60916 0.533203C8.60916 0.533203 8.60916 0.638323 8.60916 0.780083V10.6602C8.64356 13.786 3.705 13.7102 4.09572 10.2551C4.3346 8.88136 5.81076 8.03592 7.12244 8.51384V5.99992C4.26676 5.50264 1.56052 7.7756 1.589 10.6713C1.8386 16.9513 10.846 16.9521 11.0959 10.6713C11.033 10.4465 11.0682 6.26152 11.0592 5.90856C12.1796 6.60568 13.4831 6.95416 14.8032 6.90952V4.3132C13.5828 4.3132 12.6514 3.98872 12.0503 3.358Z" fill="white"/>
</svg>
