<svg width="32" height="32" viewBox="0 0 32 32" fill="none" xmlns="http://www.w3.org/2000/svg">
<path d="M3 5H7L10 22H26M10 16.6667H25.59C25.7056 16.6667 25.8177 16.6267 25.9072 16.5535C25.9966 16.4802 26.0579 16.3782 26.0806 16.2648L27.8806 7.26479C27.8951 7.19222 27.8934 7.11733 27.8755 7.04552C27.8575 6.97372 27.8239 6.90679 27.7769 6.84956C27.73 6.79234 27.6709 6.74625 27.604 6.71462C27.5371 6.68299 27.464 6.66662 27.39 6.66667H8M12 26C12 26.5523 11.5523 27 11 27C10.4477 27 10 26.5523 10 26C10 25.4477 10.4477 25 11 25C11.5523 25 12 25.4477 12 26ZM26 26C26 26.5523 25.5523 27 25 27C24.4477 27 24 26.5523 24 26C24 25.4477 24.4477 25 25 25C25.5523 25 26 25.4477 26 26Z" stroke="white" stroke-width="1.5" stroke-linecap="round" stroke-linejoin="round"/>
</svg>
