<svg width="17" height="16" viewBox="0 0 17 16" fill="none" xmlns="http://www.w3.org/2000/svg">
<g clip-path="url(#clip0_2_801)">
<path fill-rule="evenodd" clip-rule="evenodd" d="M16.5 2.91193C15.9121 3.17965 15.2791 3.3607 14.6152 3.4416C15.2932 3.02556 15.8135 2.36588 16.0586 1.58004C15.4238 1.96525 14.7222 2.2455 13.9728 2.39573C13.3755 1.74183 12.5218 1.3335 11.5771 1.3335C9.76548 1.3335 8.29574 2.84066 8.29574 4.69933C8.29574 4.9632 8.32391 5.21938 8.38026 5.46592C5.65208 5.32531 3.23381 3.98668 1.61381 1.94792C1.33113 2.44677 1.1696 3.02556 1.1696 3.64191C1.1696 4.80912 1.74905 5.83958 2.62995 6.4434C2.09277 6.42703 1.58563 6.27391 1.14236 6.02352V6.06493C1.14236 7.69632 2.27402 9.0571 3.77663 9.36527C3.50147 9.44424 3.21128 9.48373 2.91169 9.48373C2.70039 9.48373 2.49378 9.46351 2.29374 9.42402C2.71166 10.7607 3.92313 11.7344 5.36001 11.7604C4.2368 12.6637 2.82059 13.202 1.28323 13.202C1.0184 13.202 0.756383 13.1866 0.5 13.1558C1.95284 14.1092 3.67896 14.6668 5.53187 14.6668C11.5705 14.6668 14.8715 9.53862 14.8715 5.09033C14.8715 4.94394 14.8687 4.79756 14.8631 4.65407C15.5045 4.17929 16.0614 3.58702 16.5 2.91193Z" fill="white"/>
</g>
<defs>
<clipPath id="clip0_2_801">
<rect width="16" height="16" fill="white" transform="translate(0.5)"/>
</clipPath>
</defs>
</svg>
