<svg width="47" height="47" viewBox="0 0 47 47" fill="none" xmlns="http://www.w3.org/2000/svg">
<g clip-path="url(#clip0_2_830)">
<path d="M24.5701 28.3323L10.7619 17.0046C10.7055 16.9589 10.5336 16.8194 10.5336 16.5272C10.5336 16.2349 10.7055 16.0956 10.7619 16.0497L24.5701 4.67662C25.4242 3.98347 26.4712 3.63686 27.5182 3.63686C28.3186 3.63686 29.1187 3.84018 29.833 4.24537L29.6283 4.07928C25.9101 1.06179 20.5835 1.06179 16.8654 4.07928L7.32854 11.8191C4.33739 14.2466 4.33739 18.8077 7.32854 21.2352L16.8655 28.9751C20.5836 31.9925 25.9102 31.9925 29.6284 28.9751L30.0546 28.6291C28.3771 29.7092 26.1458 29.6109 24.5701 28.3323Z" fill="#CEE1F2"/>
<path d="M23.2469 33.0544C20.5145 33.0544 17.8418 32.1065 15.7209 30.3853L6.18399 22.6455C4.33149 21.1419 3.26894 18.9119 3.26894 16.5272C3.26894 14.1425 4.3314 11.9125 6.18399 10.409L15.7209 2.66914C17.8418 0.947863 20.5145 0 23.2469 0C25.9792 0 28.6519 0.947863 30.7728 2.66914L40.3098 10.409C42.7469 12.3869 43.7776 15.621 42.9357 18.6484C42.6669 19.6147 41.6662 20.1804 40.6992 19.9116C39.7329 19.6429 39.1674 18.6416 39.4362 17.6752C39.8906 16.0411 39.3351 14.296 38.0207 13.2294L28.4838 5.48948C25.4494 3.02684 21.0444 3.02684 18.0099 5.48948L8.47301 13.2294C7.4742 14.04 6.90129 15.242 6.90129 16.5272C6.90129 17.8124 7.4742 19.0145 8.47301 19.825L18.0099 27.5648C21.0391 30.0232 25.4343 30.0276 28.4683 27.5774L30.0613 26.2224C30.8253 25.5726 31.9715 25.6649 32.6214 26.4291C33.2713 27.1932 33.1788 28.3393 32.4148 28.9892L30.805 30.3584C30.7944 30.3675 30.7836 30.3764 30.7728 30.3852C28.652 32.1065 25.9792 33.0544 23.2469 33.0544Z" fill="white"/>
<path d="M23.2469 46.4941C20.5145 46.4941 17.8418 45.5462 15.7209 43.825L6.18399 36.0851C3.95091 34.2728 2.88263 31.3868 3.39588 28.5535C3.57478 27.5665 4.52037 26.9116 5.50673 27.0902C6.49364 27.269 7.14883 28.214 6.97003 29.201C6.69297 30.7304 7.26888 32.2875 8.473 33.2648L18.0099 41.0046C21.0444 43.4673 25.4493 43.4673 28.4838 41.0046L38.0207 33.2648C39.0195 32.4542 39.5925 31.2521 39.5925 29.967C39.5925 28.6819 39.0195 27.4797 38.0207 26.6692L28.4838 18.9294C25.4505 16.4676 21.0475 16.4668 18.0129 18.9269L16.6798 20.0202C15.9043 20.6565 14.7599 20.5433 14.1239 19.7677C13.4878 18.9921 13.6008 17.8477 14.3764 17.2117L15.7209 16.1089C17.8418 14.3876 20.5145 13.4397 23.2469 13.4397C25.9792 13.4397 28.6519 14.3876 30.7728 16.1088L40.3098 23.8487C42.1623 25.3522 43.2248 27.5822 43.2248 29.9669C43.2248 32.3516 42.1623 34.5816 40.3098 36.0851L30.7728 43.825C28.652 45.5462 25.9792 46.4941 23.2469 46.4941Z" fill="white"/>
</g>
<defs>
<clipPath id="clip0_2_830">
<rect width="46.4941" height="46.4941" fill="white"/>
</clipPath>
</defs>
</svg>
