<svg width="52" height="52" viewBox="0 0 52 52" fill="none" xmlns="http://www.w3.org/2000/svg">
<g clip-path="url(#clip0_2_818)">
<path d="M27.4798 31.6875L12.0364 19.0184C11.9733 18.9672 11.781 18.8112 11.781 18.4844C11.781 18.1575 11.9733 18.0016 12.0364 17.9503L27.4798 5.23044C28.435 4.45522 29.606 4.06755 30.7769 4.06755C31.6722 4.06755 32.567 4.29495 33.3658 4.74812L33.1369 4.56237C28.9784 1.18754 23.0211 1.18754 18.8626 4.56237L8.1964 13.2187C4.85103 15.9337 4.85103 21.0349 8.1964 23.7499L18.8627 32.4063C23.0212 35.7812 28.9785 35.7812 33.137 32.4063L33.6137 32.0194C31.7376 33.2274 29.242 33.1175 27.4798 31.6875Z" fill="#CEE1F2"/>
<path d="M25.9998 36.9688C22.9439 36.9688 19.9547 35.9086 17.5826 33.9835L6.9163 25.3271C4.84443 23.6456 3.65604 21.1515 3.65604 18.4844C3.65604 15.8172 4.84433 13.3232 6.9163 11.6416L17.5826 2.98523C19.9547 1.06011 22.9439 0 25.9998 0C29.0557 0 32.0449 1.06011 34.417 2.98523L45.0833 11.6416C47.809 13.8537 48.9618 17.4709 48.0202 20.8568C47.7195 21.9375 46.6003 22.5702 45.5189 22.2695C44.4381 21.969 43.8056 20.8492 44.1063 19.7683C44.6145 17.9407 43.9932 15.989 42.5232 14.796L31.8569 6.13955C28.4631 3.38528 23.5365 3.38528 20.1427 6.13955L9.47639 14.796C8.3593 15.7026 7.71854 17.047 7.71854 18.4844C7.71854 19.9218 8.3593 21.2662 9.47639 22.1727L20.1427 30.8291C23.5306 33.5786 28.4462 33.5835 31.8395 30.8431L33.6212 29.3277C34.4757 28.6009 35.7576 28.7042 36.4845 29.5588C37.2113 30.4134 37.1079 31.6953 36.2533 32.4221L34.4529 33.9535C34.4411 33.9636 34.4291 33.9736 34.417 33.9834C32.045 35.9086 29.0557 36.9688 25.9998 36.9688Z" fill="white"/>
<path d="M25.9998 52C22.9439 52 19.9547 50.9399 17.5826 49.0148L6.9163 40.3584C4.41878 38.3314 3.22399 35.1037 3.79803 31.9348C3.9981 30.8309 5.05567 30.0986 6.15885 30.2982C7.26263 30.4982 7.9954 31.5552 7.79542 32.659C7.48556 34.3696 8.12967 36.1111 9.47638 37.2041L20.1427 45.8604C23.5365 48.6147 28.4631 48.6147 31.8569 45.8604L42.5232 37.2041C43.6403 36.2975 44.281 34.953 44.281 33.5157C44.281 32.0784 43.6403 30.7339 42.5232 29.8274L31.8569 21.171C28.4644 18.4178 23.5399 18.4168 20.146 21.1683L18.655 22.3911C17.7878 23.1026 16.5078 22.9761 15.7964 22.1086C15.0851 21.2412 15.2114 19.9613 16.0789 19.25L17.5826 18.0166C19.9547 16.0914 22.9439 15.0312 25.9998 15.0312C29.0557 15.0312 32.0449 16.0914 34.417 18.0165L45.0833 26.6729C47.1552 28.3544 48.3435 30.8485 48.3435 33.5156C48.3435 36.1828 47.1553 38.6768 45.0833 40.3584L34.417 49.0148C32.045 50.9399 29.0557 52 25.9998 52Z" fill="white"/>
</g>
<defs>
<clipPath id="clip0_2_818">
<rect width="52" height="52" fill="white"/>
</clipPath>
</defs>
</svg>
